<?xml version="1.0" encoding="iso-8859-1"?>
<!-- Generator: Adobe Illustrator 19.0.0, SVG Export Plug-In . SVG Version: 6.00 Build 0)  -->
<svg version="1.1" id="Capa_1" xmlns="http://www.w3.org/2000/svg" xmlns:xlink="http://www.w3.org/1999/xlink" x="0px" y="0px"
	 viewBox="0 0 512 512" style="enable-background:new 0 0 512 512;" xml:space="preserve">
<path style="fill:#808080;" d="M401.633,289.237v199.515l-25.24,8.413c-3.988,1.329-6.143,5.64-4.815,9.628
	c1.329,3.988,5.642,6.144,9.628,4.815l30.444-10.149c3.108-1.036,5.204-3.945,5.204-7.221V289.237H401.633z"/>
<path style="fill:#696969;" d="M462.525,289.237v199.515l-25.24,8.413c-3.988,1.329-6.143,5.64-4.814,9.628
	c1.329,3.988,5.642,6.144,9.628,4.815l30.444-10.149c3.108-1.036,5.204-3.945,5.204-7.221V289.237H462.525z"/>
<path style="fill:#85453D;" d="M125.59,289.237v199.515l25.24,8.413c3.988,1.329,6.143,5.64,4.815,9.628
	c-1.329,3.988-5.642,6.144-9.628,4.815l-30.444-10.149c-3.108-1.036-5.204-3.945-5.204-7.221V289.237H125.59z"/>
<path style="fill:#A45E43;" d="M64.698,289.237v199.515l25.24,8.413c3.988,1.329,6.143,5.64,4.815,9.628
	c-1.329,3.988-5.642,6.144-9.628,4.815L54.68,501.459c-3.108-1.036-5.204-3.945-5.204-7.221V289.237H64.698z"/>
<g>
	<rect x="325.518" y="91.337" style="fill:#FFE2A8;" width="15.223" height="65.966"/>
	<rect x="186.482" y="91.337" style="fill:#FFE2A8;" width="15.223" height="65.966"/>
	<path style="fill:#FFE2A8;" d="M348.353,164.915h-30.446c-4.205,0-7.612-3.408-7.612-7.611c0-4.204,3.407-7.611,7.612-7.611h30.446
		c4.205,0,7.611,3.408,7.611,7.611C355.964,161.507,352.557,164.915,348.353,164.915z"/>
	<path style="fill:#FFE2A8;" d="M209.316,164.915H178.87c-4.205,0-7.611-3.408-7.611-7.611c0-4.204,3.407-7.611,7.611-7.611h30.446
		c4.205,0,7.611,3.408,7.611,7.611C216.928,161.507,213.521,164.915,209.316,164.915z"/>
</g>
<path style="fill:#353535;" d="M296.142,444.711c-13.372-13.372-24.919-24.919-24.919-48.914c0-4.204-3.407-7.611-7.611-7.611
	v40.232c5.799,11.089,14.068,19.36,21.765,27.056c13.372,13.371,24.919,24.918,24.919,48.914c0,4.204,3.407,7.611,7.612,7.611
	c4.205,0,7.611-3.408,7.611-7.611C325.518,474.088,309.911,458.481,296.142,444.711z"/>
<path style="fill:#4F4F4F;" d="M256,395.798c0,23.996-11.547,35.542-24.919,48.914c-13.769,13.77-29.376,29.376-29.376,59.677
	c0,4.204,3.407,7.611,7.611,7.611c4.205,0,7.611-3.408,7.611-7.611c0-23.996,11.547-35.542,24.919-48.914
	c7.697-7.697,15.966-15.967,21.765-27.056v-40.232C259.407,388.186,256,391.594,256,395.798z"/>
<path style="fill:#353535;" d="M271.223,279.088v225.3c0,4.204-3.407,7.611-7.611,7.611S256,508.592,256,504.389v-225.3H271.223z"/>
<path style="fill:#FFF0D3;" d="M348.353,45.669c0,0,0,22.039,0,30.446L333.13,91.338l-15.223-15.223c0-8.407,0-30.446,0-30.446
	H348.353z"/>
<path style="fill:#FFCB63;" d="M348.353,76.115c0,0,0,11.89,0,20.297s-6.816,15.223-15.223,15.223
	c-8.407,0-15.223-6.816-15.223-15.223s0-20.297,0-20.297H348.353z"/>
<path style="fill:#EBEBEB;" d="M439.691,195.361H317.907c-12.59,0-22.835-10.243-22.835-22.834
	c0-12.591,10.244-22.835,22.835-22.835c4.205,0,7.611,3.408,7.611,7.611c0,4.204-3.407,7.611-7.611,7.611
	c-4.197,0-7.612,3.414-7.612,7.612c0,4.197,3.414,7.611,7.612,7.611h121.784c4.205,0,7.612,3.408,7.612,7.611
	C447.302,191.953,443.895,195.361,439.691,195.361z"/>
<path style="fill:#FFF0D3;" d="M178.87,45.669c0,0,0,22.039,0,30.446l15.223,15.223l15.223-15.223c0-8.407,0-30.446,0-30.446H178.87
	z"/>
<path style="fill:#FFCB63;" d="M178.87,76.115c0,0,0,11.89,0,20.297s6.816,15.223,15.223,15.223s15.223-6.816,15.223-15.223
	s0-20.297,0-20.297H178.87z"/>
<g>
	<path style="fill:#85453D;" d="M209.316,149.692c-4.205,0-7.611,3.408-7.611,7.611c0,4.204,3.407,7.611,7.611,7.611
		c4.197,0,7.611,3.414,7.611,7.612c0,4.197-3.414,7.611-7.611,7.611H87.532v15.223h121.784c12.59,0,22.834-10.243,22.834-22.834
		C232.151,159.935,221.907,149.692,209.316,149.692z"/>
	<path style="fill:#85453D;" d="M87.532,45.669v91.338c25.222,0,45.669-20.447,45.669-45.669S112.755,45.669,87.532,45.669z"/>
</g>
<path style="fill:#A45E43;" d="M102.755,91.338c0-25.222-6.816-45.669-15.223-45.669c-25.222,0-45.669,20.447-45.669,45.669
	s20.447,45.669,45.669,45.669C95.939,137.007,102.755,116.56,102.755,91.338z"/>
<path style="fill:#60312C;" d="M117.978,15.223c-0.871,0-1.718,0.089-2.548,0.23c0.001-0.077,0.011-0.152,0.011-0.23
	C115.441,6.816,108.625,0,100.218,0c-5.298,0-9.959,2.71-12.686,6.815C84.805,2.71,80.144,0,74.846,0
	c-8.407,0-15.223,6.816-15.223,15.223c0,0.078,0.01,0.152,0.011,0.23c-0.83-0.141-1.678-0.23-2.548-0.23
	c-8.407,0-15.223,6.816-15.223,15.223s6.816,15.223,15.223,15.223h60.892c8.407,0,15.223-6.816,15.223-15.223
	S126.385,15.223,117.978,15.223z"/>
<path style="fill:#D5E3AA;" d="M112.904,167.453H82.458v121.784l50.743-30.446V187.75
	C133.201,176.54,124.114,167.453,112.904,167.453z"/>
<path style="fill:#FFF0D3;" d="M82.458,167.453H62.161c-11.21,0-20.297,9.087-20.297,20.297v101.487h60.892V187.75
	C102.755,176.54,93.668,167.453,82.458,167.453z"/>
<polygon style="fill:#9DB55F;" points="102.755,258.791 72.309,311.637 102.755,350.129 133.201,350.129 133.201,258.791 "/>
<path style="fill:#B9D171;" d="M102.755,258.791H41.863c-9.468,10.732-15.223,24.818-15.223,40.255v51.083h76.115V258.791z"/>
<path style="fill:#696969;" d="M439.691,258.791v76.115c25.222,0,45.669-20.447,45.669-45.669L439.691,258.791z"/>
<path style="fill:#808080;" d="M454.914,289.237l-15.223-30.446l-45.669,30.446c0,25.222,20.447,45.669,45.669,45.669
	C448.098,334.906,454.914,314.459,454.914,289.237z"/>
<path style="fill:#CCCCCC;" d="M465.062,167.453h-17.76l-27.909,91.338l20.297,30.446h45.669V187.75
	C485.36,176.54,476.273,167.453,465.062,167.453z"/>
<path style="fill:#EBEBEB;" d="M414.319,167.453c-11.21,0-20.297,9.087-20.297,20.297v101.487h45.669V177.602l-7.612-10.149H414.319
	z"/>
<path style="fill:#4F4F4F;" d="M432.079,167.453v91.338c0,4.204,3.407,7.611,7.612,7.611s7.612-3.408,7.612-7.611v-91.338H432.079z"
	/>
<path style="fill:#FF8D7E;" d="M439.691,45.669V148.17l45.669-46.684V91.338C485.36,66.115,464.913,45.669,439.691,45.669z"/>
<path style="fill:#FFB4A9;" d="M439.691,45.669c-25.222,0-45.669,20.447-45.669,45.669v10.149l60.892,46.684V91.338
	C454.914,66.115,448.098,45.669,439.691,45.669z"/>
<path style="fill:#FFE2A8;" d="M458.678,101.487c-1.069-1.596-2.337-3.047-3.764-4.324l-15.223,70.291
	c25.222,0,45.669-20.447,45.669-45.669v-20.297H458.678z"/>
<path style="fill:#FFF0D3;" d="M454.914,121.784V97.162c-4.04-3.619-9.372-5.824-15.223-5.824c-7.917,0-14.89,4.03-18.987,10.149
	h-26.682v20.297c0,25.222,20.447,45.669,45.669,45.669C448.098,167.453,454.914,147.006,454.914,121.784z"/>
<polygon style="fill:#FFCB63;" points="317.907,258.791 287.461,274.014 317.907,289.237 348.353,289.237 348.353,258.791 "/>
<rect x="178.87" y="258.791" style="fill:#FFE2A8;" width="139.037" height="30.446"/>
<path style="fill:#353535;" d="M278.835,403.409h-30.446c-4.205,0-7.611-3.408-7.611-7.612c0-4.204,3.407-7.611,7.611-7.611h30.446
	c4.205,0,7.611,3.408,7.611,7.611C286.446,400.001,283.039,403.409,278.835,403.409z"/>
<g>
</g>
<g>
</g>
<g>
</g>
<g>
</g>
<g>
</g>
<g>
</g>
<g>
</g>
<g>
</g>
<g>
</g>
<g>
</g>
<g>
</g>
<g>
</g>
<g>
</g>
<g>
</g>
<g>
</g>
</svg>
