<?xml version="1.0" encoding="iso-8859-1"?>
<!-- Generator: Adobe Illustrator 19.0.0, SVG Export Plug-In . SVG Version: 6.00 Build 0)  -->
<svg version="1.1" id="Capa_1" xmlns="http://www.w3.org/2000/svg" xmlns:xlink="http://www.w3.org/1999/xlink" x="0px" y="0px"
	 viewBox="0 0 512 512" style="enable-background:new 0 0 512 512;" xml:space="preserve">
<g>
	<rect x="34.133" y="226.133" style="fill:#CB8252;" width="443.733" height="273.067"/>
	<g>
		<path style="fill:#7F8C8D;" d="M51.2,140.8c-4.713,0-8.533,3.821-8.533,8.533V192c0,4.713,3.821,8.533,8.533,8.533
			s8.533-3.821,8.533-8.533v-42.667C59.733,144.621,55.913,140.8,51.2,140.8z"/>
		<path style="fill:#7F8C8D;" d="M221.867,140.8c-4.713,0-8.533,3.821-8.533,8.533V192c0,4.713,3.821,8.533,8.533,8.533
			c4.713,0,8.533-3.821,8.533-8.533v-42.667C230.4,144.621,226.579,140.8,221.867,140.8z"/>
		<path style="fill:#7F8C8D;" d="M341.333,200.533c-4.713,0-8.533-3.821-8.533-8.533v-34.133c0-4.713,3.82-8.533,8.533-8.533
			s8.533,3.821,8.533,8.533V192C349.867,196.713,346.046,200.533,341.333,200.533z"/>
		<path style="fill:#7F8C8D;" d="M426.667,200.533c-4.713,0-8.533-3.821-8.533-8.533v-34.133c0-4.713,3.82-8.533,8.533-8.533
			s8.533,3.821,8.533,8.533V192C435.2,196.713,431.38,200.533,426.667,200.533z"/>
	</g>
	<path style="fill:#F29C1F;" d="M298.667,106.667v25.6c0,14.138,11.462,25.6,25.6,25.6h119.467c14.138,0,25.6-11.462,25.6-25.6
		v-76.8c0-28.277-22.923-51.2-51.2-51.2h-68.267c-28.277,0-51.2,22.923-51.2,51.2V106.667z"/>
	<path style="fill:#804537;" d="M307.2,55.467h153.6c14.138,0,25.6,11.462,25.6,25.6l0,0c0,14.138-11.462,25.6-25.6,25.6H307.2
		c-14.138,0-25.6-11.462-25.6-25.6l0,0C281.6,66.928,293.062,55.467,307.2,55.467z"/>
	<path style="fill:#F29C1F;" d="M34.133,64h204.8c4.713,0,8.533,3.821,8.533,8.533V140.8c0,4.713-3.821,8.533-8.533,8.533h-204.8
		c-4.713,0-8.533-3.821-8.533-8.533V72.533C25.6,67.821,29.421,64,34.133,64z"/>
	<g>
		<path style="fill:#D25627;" d="M162.133,98.133H68.267c-4.713,0-8.533,3.821-8.533,8.533c0,4.713,3.821,8.533,8.533,8.533h93.867
			c4.713,0,8.533-3.821,8.533-8.533C170.667,101.954,166.846,98.133,162.133,98.133z"/>
		<path style="fill:#D25627;" d="M204.8,98.133h-8.533c-4.713,0-8.533,3.821-8.533,8.533c0,4.713,3.821,8.533,8.533,8.533h8.533
			c4.713,0,8.533-3.821,8.533-8.533C213.333,101.954,209.513,98.133,204.8,98.133z"/>
	</g>
	<rect x="76.8" y="396.8" style="fill:#805333;" width="110.933" height="102.4"/>
	<g>
		<path style="fill:#90BAE1;" d="M187.733,302.933V396.8H76.8v-93.867c0-4.713,3.821-8.533,8.533-8.533H179.2
			C183.884,294.469,187.665,298.249,187.733,302.933z"/>
		<path style="fill:#90BAE1;" d="M238.933,294.4h187.733c4.713,0,8.533,3.82,8.533,8.533v102.4c0,4.713-3.82,8.533-8.533,8.533
			H238.933c-4.713,0-8.533-3.821-8.533-8.533v-102.4C230.4,298.221,234.221,294.4,238.933,294.4z"/>
	</g>
	<g>
		<polygon style="fill:#B0D3F0;" points="384,294.4 332.8,413.867 273.067,413.867 324.267,294.4 		"/>
		<path style="fill:#B0D3F0;" d="M182.443,295.083L131.584,396.8H81.067l51.2-102.4H179.2
			C180.315,294.413,181.417,294.645,182.443,295.083z"/>
	</g>
	<path style="fill:#804537;" d="M503.467,507.733H8.533C3.821,507.733,0,503.913,0,499.2c0-4.713,3.821-8.533,8.533-8.533h494.933
		c4.713,0,8.533,3.821,8.533,8.533C512,503.913,508.18,507.733,503.467,507.733z"/>
	<path style="fill:#805333;" d="M25.6,192h460.8c9.426,0,17.067,7.641,17.067,17.067v17.067c0,9.426-7.641,17.067-17.067,17.067
		H25.6c-9.426,0-17.067-7.641-17.067-17.067v-17.067C8.533,199.641,16.174,192,25.6,192z"/>
</g>
<g>
</g>
<g>
</g>
<g>
</g>
<g>
</g>
<g>
</g>
<g>
</g>
<g>
</g>
<g>
</g>
<g>
</g>
<g>
</g>
<g>
</g>
<g>
</g>
<g>
</g>
<g>
</g>
<g>
</g>
</svg>
