<?xml version="1.0" encoding="iso-8859-1"?>
<!-- Generator: Adobe Illustrator 19.0.0, SVG Export Plug-In . SVG Version: 6.00 Build 0)  -->
<svg version="1.1" id="Capa_1" xmlns="http://www.w3.org/2000/svg" xmlns:xlink="http://www.w3.org/1999/xlink" x="0px" y="0px"
	 viewBox="0 0 512 512" style="enable-background:new 0 0 512 512;" xml:space="preserve">
<g>
	<path style="fill:#FFCD71;" d="M505.115,55.91H6.879c-2.784,0-5.042,2.258-5.042,5.042v19.779v6.335v135.786
		c0,4.635,5.397,7.177,8.971,4.226l29.899-24.692c2.026-1.673,4.954-1.673,6.98,0l29.9,24.692c3.574,2.952,8.971,0.41,8.971-4.226
		c0,4.635,5.397,7.177,8.971,4.226l29.9-24.692c2.026-1.673,4.954-1.673,6.98,0l29.899,24.692c3.574,2.952,8.971,0.41,8.971-4.226
		c0,4.635,5.397,7.177,8.971,4.226l29.899-24.692c2.026-1.673,4.954-1.673,6.98,0l29.899,24.692c3.574,2.952,8.971,0.41,8.971-4.226
		c0,4.635,5.397,7.177,8.971,4.226l29.899-24.692c2.026-1.673,4.954-1.673,6.98,0l29.9,24.692c3.574,2.952,8.971,0.41,8.971-4.226
		c0,4.635,5.397,7.177,8.971,4.226l29.899-24.692c2.026-1.673,4.954-1.673,6.98,0l29.899,24.692c3.574,2.952,8.971,0.41,8.971-4.226
		c0,4.635,5.397,7.177,8.971,4.226l29.899-24.692c2.026-1.673,4.954-1.673,6.98,0l29.9,24.692c3.574,2.952,8.971,0.41,8.971-4.226
		V87.066v-6.335V60.952C510.156,58.168,507.9,55.91,505.115,55.91z"/>
	<path style="fill:#FFCD71;" d="M401.758,281.887c-4.284,0-7.757-3.473-7.757-7.757v-24.304h-7.693
		c-4.284,0-7.757-3.473-7.757-7.757s3.473-7.757,7.757-7.757h15.449c4.284,0,7.757,3.473,7.757,7.757v32.061
		C409.514,278.414,406.042,281.887,401.758,281.887z"/>
</g>
<path style="fill:#FB5858;" d="M340.717,295.332c-4.284,0-7.757-3.473-7.757-7.757v-24.304h-7.693c-4.284,0-7.757-3.473-7.757-7.757
	s3.473-7.757,7.757-7.757h15.449c4.284,0,7.757,3.473,7.757,7.757v32.061C348.474,291.859,345.001,295.332,340.717,295.332z"/>
<path style="fill:#FFB52D;" d="M401.758,356.524L401.758,356.524c-10.274,0-18.681-8.406-18.681-18.68v-58.477
	c0-10.274,8.406-18.68,18.681-18.68l0,0c10.274,0,18.68,8.406,18.68,18.68v58.477C420.438,348.117,412.032,356.524,401.758,356.524z
	"/>
<path style="fill:#D63030;" d="M340.717,369.968L340.717,369.968c-10.274,0-18.681-8.406-18.681-18.68v-58.477
	c0-10.274,8.406-18.68,18.68-18.68l0,0c10.274,0,18.681,8.406,18.681,18.68v58.477C359.398,361.562,350.991,369.968,340.717,369.968
	z"/>
<path style="fill:#20B7A1;" d="M178.43,279.819v62.57H82.3v-62.57c0-5.998,4.861-10.859,10.859-10.859h74.412
	C173.57,268.959,178.43,273.82,178.43,279.819z"/>
<path style="fill:#FFB52D;" d="M294.263,307.225v39.817h-83.524v-39.817c0-10.849,8.801-19.65,19.65-19.65h44.223
	C285.462,287.575,294.263,296.376,294.263,307.225z"/>
<path style="fill:#24D3B5;" d="M178.43,279.819v62.57h-70.772v-62.57c0-5.998,4.861-10.859,10.859-10.859h49.053
	C173.57,268.959,178.43,273.82,178.43,279.819z"/>
<path style="fill:#FFCD71;" d="M294.263,307.225v39.817h-58.165v-39.817c0-10.849,8.801-19.65,19.65-19.65h18.864
	C285.462,287.575,294.263,296.376,294.263,307.225z"/>
<g>
	<path style="fill:#F29500;" d="M94.314,512H58.806c-2.76,0-4.998-2.238-4.998-4.998v-86.185c0-2.76,2.238-4.998,4.998-4.998h35.508
		c2.76,0,4.998,2.238,4.998,4.998v86.185C99.313,509.762,97.074,512,94.314,512z"/>
	<path style="fill:#F29500;" d="M453.189,512h-35.508c-2.76,0-4.998-2.238-4.998-4.998v-86.185c0-2.76,2.238-4.998,4.998-4.998
		h35.508c2.76,0,4.998,2.238,4.998,4.998v86.185C458.187,509.762,455.949,512,453.189,512z"/>
</g>
<path style="fill:#FFB52D;" d="M479.388,342.389v82.22c0,12.99-3.827,25.069-10.425,35.205
	c-11.521,17.716-31.502,29.434-54.214,29.434H89.487c-35.701,0-64.639-28.937-64.639-64.639v-82.22H479.388z"/>
<path style="fill:#FFCD71;" d="M479.388,342.389v82.22c0,12.99-3.827,25.069-10.425,35.205c-0.621,0.021-1.241,0.031-1.872,0.031
	H141.829c-35.701,0-64.639-28.938-64.639-64.639v-52.818H479.388z"/>
<g>
	<path style="fill:#FFB52D;" d="M44.198,354.8c-4.284,0-7.757-3.473-7.757-7.757V147.415c0-4.284,3.473-7.757,7.757-7.757
		s7.757,3.473,7.757,7.757v199.628C51.955,351.327,48.482,354.8,44.198,354.8z"/>
	<path style="fill:#FFB52D;" d="M467.797,354.8c-4.284,0-7.757-3.473-7.757-7.757V147.415c0-4.284,3.473-7.757,7.757-7.757
		c4.284,0,7.757,3.473,7.757,7.757v199.628C475.554,351.327,472.081,354.8,467.797,354.8z"/>
	<path style="fill:#FFB52D;" d="M505.115,92.108H6.879c-2.784,0-5.042-2.258-5.042-5.042V60.952c0-2.784,2.258-5.042,5.042-5.042
		h498.236c2.784,0,5.042,2.258,5.042,5.042v26.114C510.156,89.85,507.9,92.108,505.115,92.108z"/>
</g>
<path style="fill:#40C1FA;" d="M44.198,80.731H1.837v142.12c0,4.635,5.397,7.177,8.971,4.226l29.899-24.691
	c2.026-1.673,4.954-1.673,6.98,0l29.899,24.691c3.574,2.952,8.971,0.41,8.971-4.226V80.731H44.198z"/>
<path style="fill:#FC7979;" d="M128.917,80.731h-42.36v142.12c0,4.635,5.397,7.177,8.971,4.226l29.899-24.691
	c2.026-1.673,4.954-1.673,6.98,0l29.899,24.691c3.574,2.952,8.971,0.41,8.971-4.226V80.731H128.917z"/>
<path style="fill:#40C1FA;" d="M213.637,80.731h-42.36v142.12c0,4.635,5.397,7.177,8.971,4.226l29.899-24.691
	c2.026-1.673,4.954-1.673,6.98,0l29.899,24.691c3.574,2.952,8.971,0.41,8.971-4.226V80.731H213.637z"/>
<path style="fill:#FC7979;" d="M298.358,80.731h-42.36v142.12c0,4.635,5.397,7.177,8.971,4.226l29.899-24.691
	c2.026-1.673,4.954-1.673,6.98,0l29.899,24.691c3.574,2.952,8.971,0.41,8.971-4.226V80.731H298.358z"/>
<path style="fill:#40C1FA;" d="M383.077,80.731h-42.36v142.12c0,4.635,5.397,7.177,8.971,4.226l29.899-24.691
	c2.026-1.673,4.954-1.673,6.98,0l29.899,24.691c3.574,2.952,8.971,0.41,8.971-4.226V80.731H383.077z"/>
<path style="fill:#FC7979;" d="M467.797,80.731h-42.36v142.12c0,4.635,5.397,7.177,8.971,4.226l29.899-24.691
	c2.026-1.673,4.954-1.673,6.98,0l29.899,24.691c3.574,2.952,8.971,0.41,8.971-4.226V80.731H467.797z"/>
<path style="fill:#F29500;" d="M24.461,323.256h463.072c10.523,0,19.133,8.61,19.133,19.133l0,0c0,10.523-8.61,19.133-19.133,19.133
	H24.461c-10.523,0-19.133-8.61-19.133-19.133l0,0C5.328,331.866,13.938,323.256,24.461,323.256z"/>
<path style="fill:#20B7A1;" d="M351.124,93.525c0,44.647-31.285,81.993-73.14,91.291c-6.557,1.469-13.383,2.234-20.384,2.234
	c-51.649,0-93.525-41.876-93.525-93.525S205.951,0,257.6,0c7.002,0,13.828,0.765,20.384,2.234
	C319.839,11.532,351.124,48.877,351.124,93.525z"/>
<path style="fill:#24D3B5;" d="M351.124,93.525c0,44.647-31.285,81.993-73.14,91.291c-41.855-9.298-73.15-46.643-73.15-91.291
	s31.296-81.993,73.15-91.291C319.839,11.532,351.124,48.877,351.124,93.525z"/>
<path style="fill:#FFCD71;" d="M226.747,139.386L211.5,124.138c-12.405-12.405-12.405-32.518,0-44.922l30.19-30.19
	c12.405-12.405,32.518-12.405,44.922,0l15.248,15.248c12.405,12.405,12.405,32.518,0,44.922l-30.19,30.19
	C259.264,151.791,239.152,151.791,226.747,139.386z"/>
<path style="fill:#FFB52D;" d="M219.123,131.763L219.123,131.763c-12.405-12.405-12.405-32.518,0-44.922l30.19-30.19
	c12.405-12.405,32.518-12.405,44.922,0l0,0c12.405,12.405,12.405,32.518,0,44.922l-30.19,30.19
	C251.641,144.167,231.528,144.167,219.123,131.763z"/>
<path style="fill:#D63030;" d="M203.316,147.57L203.316,147.57c-6.014-6.014-6.014-15.855,0-21.869l84.858-84.858
	c6.014-6.014,15.855-6.014,21.869,0l0,0c6.014,6.014,6.014,15.855,0,21.869l-84.858,84.858
	C219.17,153.583,209.33,153.583,203.316,147.57z"/>
<g>
</g>
<g>
</g>
<g>
</g>
<g>
</g>
<g>
</g>
<g>
</g>
<g>
</g>
<g>
</g>
<g>
</g>
<g>
</g>
<g>
</g>
<g>
</g>
<g>
</g>
<g>
</g>
<g>
</g>
</svg>
